<svg width="1546" height="351" viewBox="0 0 1546 351" fill="none" xmlns="http://www.w3.org/2000/svg">
<path d="M508 267.5C455.75 267.5 415.25 228.25 415.25 177.5C415.25 126.75 455.75 87.25 508 87.25C536.25 87.25 564 99.5 580.25 119.25L557.75 141.75C545 126.25 527.25 118 508 118C475 118 449.75 143.75 449.75 177.5C449.75 211 475.25 236.75 509.25 236.75C528 236.75 545 228.75 557.5 214L579.25 235.75C562.5 255.5 535.5 267.5 508 267.5ZM658.281 267.5C619.781 267.5 589.781 238 589.781 200.5C589.781 162.75 619.781 133.25 658.281 133.25C696.781 133.25 727.031 162.75 727.031 200.5C727.031 238 696.781 267.5 658.281 267.5ZM658.281 240C679.531 240 696.031 222.5 696.031 200.5C696.031 178 679.281 160.75 658.281 160.75C637.281 160.75 620.781 178 620.781 200.5C620.781 222.5 637.281 240 658.281 240ZM786.945 265L731.445 135.5H765.945L802.695 224.75L839.445 135.5H873.195L817.695 265H786.945ZM946.867 267.5C907.867 267.5 877.867 238 877.867 200.25C877.867 162.75 906.867 133.5 943.867 133.5C980.367 133.5 1007.62 163 1007.62 202.5V210.75H909.867C914.117 228.25 929.117 240.75 948.367 240.75C960.117 240.75 970.867 236.75 977.867 230L998.617 249.25C982.867 261.75 967.117 267.5 946.867 267.5ZM909.617 188H976.367C972.617 171.5 959.367 159.75 943.117 159.75C926.367 159.75 913.617 170.75 909.617 188ZM1029.37 265V135.5H1061.12V146.75C1070.87 137.75 1083.62 133 1098.12 133C1128.12 133 1149.12 154.25 1149.12 184.5V265H1117.62V189.25C1117.62 171.5 1106.37 160.5 1089.12 160.5C1077.12 160.5 1067.37 165.5 1061.12 174.5V265H1029.37ZM1217.1 267.25C1189.1 267.25 1169.85 251 1169.85 227.5C1169.85 203 1189.35 188.5 1222.35 188.5C1233.85 188.5 1245.1 190.25 1255.1 194V183.5C1255.1 167.5 1245.35 159.5 1226.6 159.5C1215.6 159.5 1203.35 162.75 1187.1 170.25L1175.6 146.75C1195.6 137.5 1213.6 133 1231.85 133C1266.6 133 1286.35 150.25 1286.35 180.5V265H1255.1V255.25C1244.1 263.5 1231.85 267.25 1217.1 267.25ZM1199.85 227C1199.85 237.5 1209.85 244.25 1225.1 244.25C1236.85 244.25 1246.85 241.25 1255.1 234.75V215.25C1246.35 211.25 1237.1 209.5 1226.35 209.5C1209.85 209.5 1199.85 216 1199.85 227ZM1313.06 265V135.5H1344.81V146.75C1354.56 137.75 1367.31 133 1381.81 133C1411.81 133 1432.81 154.25 1432.81 184.5V265H1401.31V189.25C1401.31 171.5 1390.06 160.5 1372.81 160.5C1360.81 160.5 1351.06 165.5 1344.81 174.5V265H1313.06ZM1515.63 267C1487.88 267 1473.38 254.25 1473.38 229.75V162H1446.63V135.5H1473.38V102.5L1504.88 95.25V135.5H1542.38V162H1504.88V223C1504.88 235.5 1509.88 240.25 1523.13 240.25C1529.88 240.25 1534.88 239.5 1541.38 237.25V263.25C1534.38 265.5 1523.13 267 1515.63 267Z" fill="white"/>
<path d="M148.584 18.7594C150.074 10.4692 156.467 3.28011 164.566 0.905323C167.936 -0.26048 171.543 0.0417652 175.042 0.0201762C194.977 0.279244 214.782 4.35955 233.379 11.4191C234.977 12.0884 236.575 12.7145 238.195 13.3621C241.715 14.9597 245.322 16.4278 248.778 18.1765C251.953 19.8388 255.128 21.5444 258.195 23.401C268.973 29.7697 279.448 36.9373 288.325 45.7887C248.929 45.8319 209.534 45.7887 170.139 45.8103C161.478 46.0262 153.465 40.0245 150.052 32.2525C148.173 28.0642 148.022 23.2715 148.584 18.7594Z" fill="#00BBFF"/>
<path d="M92.4272 18.2619C104.825 12.0443 118.021 7.44584 131.563 4.48816C126.876 14.3111 125.818 25.8612 129.015 36.2887C132.859 49.0693 142.924 59.7127 155.408 64.4407C156.358 64.7861 157.308 65.1099 158.259 65.4122C160.937 66.0814 163.637 66.945 166.423 67.0313C199.49 67.0097 232.535 67.0313 265.602 67.0313C273.939 67.1393 282.427 66.4484 290.634 68.413C300.526 70.6367 309.641 76.0771 316.401 83.5901C328.388 97.6876 336.315 115.088 339.382 133.309C340.202 137.282 340.116 141.405 341.326 145.291C342.427 152.092 341.218 158.957 339.555 165.563C338.777 164.333 337.978 163.102 337.157 161.915C318.669 134.821 286.941 117.312 254.069 116.556C245.602 116.513 237.157 115.93 228.712 116.017C217.784 114.354 206.682 115.801 195.71 114.851C184.76 113.404 173.68 114.959 162.708 113.707C153.356 112.627 143.961 113.599 134.63 113.016C124.544 111.289 114.22 113.275 104.22 111.138C90.181 107.834 77.6108 98.4217 71.0665 85.4899C64.7166 73.4648 63.8311 58.7844 68.3451 46.0037C72.4272 34.1514 81.1529 23.875 92.4272 18.2619Z" fill="#00BBFF"/>
<path d="M14.7616 93.3054C21.6083 78.6897 32.861 66.1681 46.6407 57.77C45.1936 75.6241 50.6147 93.9747 61.8026 108.007C68.6925 116.967 77.8933 123.94 88.0013 128.906C89.5348 129.64 91.1331 130.287 92.7746 130.827C94.632 131.626 96.5327 132.295 98.5197 132.727C100.161 133.223 101.846 133.547 103.466 134.173C106.835 134.195 110.032 135.598 113.401 135.361C122.105 135.102 130.744 135.749 139.427 136.289C152.926 136.311 166.446 136.267 179.945 136.311C191.435 137.153 202.969 137.563 214.502 137.131C223.833 137.476 233.163 137.52 242.494 137.692C251.219 137.779 260.053 137.757 268.606 139.722C289.254 144.147 308.066 156.799 319.772 174.394C320.593 175.581 321.371 176.811 322.148 178.042C323.293 180.05 324.459 182.014 325.539 184.087C326.576 186.289 327.483 188.556 328.412 190.823C328.908 192.032 329.319 193.284 329.816 194.514C330.075 195.507 330.399 196.479 330.766 197.472C332.148 202.308 332.882 207.273 333.854 212.196C334.027 218.046 333.941 223.94 333.898 229.812C333.293 233.763 332.451 237.714 331.781 241.665C330.355 246.285 328.995 250.926 326.943 255.33C324.978 259.152 323.25 263.167 320.744 266.665C314.135 277.2 304.934 285.879 294.438 292.463C294.394 287.887 294.567 283.31 294.394 278.733C293.552 274.739 293.12 270.659 291.867 266.794C291.392 264.83 290.744 262.887 289.924 261.052C289.189 259.022 288.368 257.036 287.483 255.093C277.958 235.792 259.643 221.026 238.541 216.449C226.878 213.556 214.783 215.218 202.947 214.204C178.671 213.988 154.373 213.362 130.14 213.124C114.934 212.239 99.7076 212.282 84.5024 212.304C78.8653 211.397 73.1633 210.771 67.6342 209.216C64.4592 208.18 61.2411 207.209 58.1525 205.87C54.848 204.467 51.6083 202.891 48.5197 201.077C40.226 196.63 33.4009 190.046 26.943 183.288C16.3167 170.918 9.38365 155.417 7.4614 139.247C5.49596 123.638 7.97976 107.489 14.7616 93.3054Z" fill="#00BBFF"/>
<path d="M0.74208 184.821C1.02286 184.908 1.60601 185.102 1.88679 185.188C9.48938 197.127 19.4246 207.576 31.1956 215.478C33.917 217.377 36.7896 219.04 39.6406 220.745C42.2108 222.041 44.7809 223.293 47.3511 224.588C49.3166 225.452 51.3252 226.272 53.3339 227.049C54.241 227.395 55.1913 227.74 56.12 228.042C57.0704 228.388 58.0423 228.69 59.0142 228.992C66.012 231.324 73.3339 232.382 80.5909 233.483C87.3943 233.591 94.241 233.181 101.001 234.238C143.658 235.145 186.336 236.807 228.993 237.995C237.33 238.513 245.494 241.233 252.513 245.724C266.79 254.64 276.12 271.436 275.17 288.34C275.515 293.738 274.306 299.092 272.556 304.187C272.06 305.525 271.563 306.864 271.066 308.224C270.807 308.699 270.332 309.649 270.072 310.124C266.077 317.982 259.986 324.696 252.643 329.532C250.98 330.46 249.36 331.475 247.718 332.403C244.889 333.763 241.952 334.821 239.144 336.225C237.524 336.851 235.904 337.477 234.327 338.146C232.967 338.621 231.606 339.117 230.267 339.636C226.185 341.06 222.038 342.421 217.848 343.522C215.17 344.428 212.405 345.206 209.576 345.314C212.319 339.571 214.025 333.245 213.658 326.833C213.982 321.717 213.118 316.665 211.412 311.851C205.753 295.378 189.446 283.504 172.06 282.986C137.416 282.921 102.751 283.051 68.1071 282.921C63.3123 282.317 58.4742 282.749 53.6578 282.468C50.6341 281.712 47.5671 281.086 44.6514 279.985C30.4397 275.301 20.5261 263.146 13.5283 250.452C11.8436 247.278 10.3101 244.018 8.73344 240.801C8.12869 239.182 7.50234 237.541 6.81119 235.965C5.92566 233.418 5.04013 230.892 4.32739 228.301C3.83063 226.661 3.54985 224.955 2.9451 223.358C1.99478 219.083 1.58441 214.744 0.634088 210.469C-0.489022 201.963 0.0941317 193.349 0.74208 184.821Z" fill="#00BBFF"/>
<path d="M52.1895 304.253C90.8935 303.821 129.619 304.166 168.323 304.015C177.308 303.476 186.142 308.657 190.267 316.602C190.915 318.242 191.541 319.905 192.276 321.524C192.384 326.166 193.097 331.045 191.196 335.449C188.971 341.774 183.615 346.394 177.546 348.899C177.071 348.964 176.12 349.093 175.645 349.179C173.766 350.496 171.369 349.827 169.252 349.978C164.263 349.719 159.187 350.54 154.284 349.352C116.487 346.502 79.9864 329.965 52.1895 304.253Z" fill="#00BBFF"/>
</svg>
